<svg xmlns="http://www.w3.org/2000/svg" width="1366" height="333.41" viewBox="0 0 1366 333.41">
  <defs>
    <style>
      .cls-1 {
        fill: #0b676c;
        fill-rule: evenodd;
      }
    </style>
  </defs>
  <path id="Ellipse_2_copy" data-name="Ellipse 2 copy" class="cls-1" d="M2259.19,1193.19c127.24-8.8,208.52,33.67,339.45,34.06,125.56-2.25,131.95-36.95,257.1-28.26,92.84,4.85,142.21,34.72,221.38,43.53,38.57,3.8,73.64-2.98,105.52-8.66,31.73-5.31,60.28-9.53,82.4,7.86,26.28,21.03,32.8,62.04,20.8,105.85-11.27,45.24-41.06,93.29-70.57,161.36-229.92.24-461.69,1.25-693.27,2.07-225.49-2.56-451.71-4.57-681.92-6.06-5.22-29.07-18.53-57.39-35.04-85.43-23.12-38.59-41.54-63.28-51.23-98.65-3.63-13.92-10.44-43.16-4.21-71.57,5.48-28.43,23.99-56.03,53.53-66.97,33.64-12.38,65.67,1.61,110.01,17.99,43.12,16.53,98.53,35.45,150.58,36.25,97.78,0.49,107.34-38.67,195.47-43.37m973.69,370.89" transform="translate(-1841 -1177.59)"/>
</svg>
