<svg xmlns="http://www.w3.org/2000/svg" width="1366" height="257.94" viewBox="0 0 1366 257.94">
  <defs>
    <style>
      .cls-1 {
        fill: #26a3a6;
        fill-rule: evenodd;
      }
    </style>
  </defs>
  <path class="cls-1" d="M2678.29,1162c180.14,1.03,241.9-102.03,414.17-95,134.05,5.47,187.45,84.91,323.78,77,90.05-5.22,151.78-61.03,216.94-48,73.02,14.6,124.62,104.15,80.54,161-97.86,126.2-873.39-7.19-1362.5,31-257.13,20.08-783.28,80.83-1004.2-23-57.49-27.02-83.77-54.54-88.75-81-7.23-38.38,27.25-83.1,83.82-105,126.48-48.95,334.85,56.21,525.93,57,193.07,0.79,280.96-78.17,481.56-54C2487.71,1098.64,2537.7,1161.2,2678.29,1162Z" transform="translate(-1841 -1066.03)"/>
</svg>
