<svg xmlns="http://www.w3.org/2000/svg" width="1366" height="218" viewBox="0 0 1366 218">
  <defs>
    <style>
      .cls-1 {
        fill: #26a3a6;
        fill-rule: evenodd;
      }
    </style>
  </defs>
  <path class="cls-1" d="M1537.74,1336.92c26.48-8.81,59.79-14.5,90.22-18.36,30.74-3.86,58.6-5.87,81.29-7.22,72.59-3.68,63.53.12,68.91,12.94,1.93,5.8,11.26,13.91,29.06,20.8,17.41,6.89,43.29,12.56,69.2,13.38,44.62,1.63,74.4-7.21,114.79-16.33,39.33-9.29,89.77-18.85,141.66-22.62,53.83-4.23,81.22-1.44,108.53,3.6,26.95,5.04,53.81,12.32,98.27,16.99,68.92,6.91,123.2-1.37,179.69-10.88,55.94-9.53,114.09-20.28,178-18.48,76.2,1.98,130.26,19.51,189.44,36.33,58.48,16.82,122.08,32.94,201.17,31.91A620.12,620.12,0,0,0,3225,1362.14V1528H1822c-2.74-14.33-25.97-30.62-61.92-47.75-35.53-17.13-83.77-35.08-126.65-52.62-43.02-17.54-80.69-34.66-98.33-50.14-18.36-15.5-16.69-29.35,2.64-40.57" transform="translate(-1841 -1310)"/>
</svg>
